# xmcd CD database file
#
# Track frame offsets:
#	150
#	25072
#	46772
#	76642
#	111387
#	145417
#	165760
#	188182
#	213772
#
# Disc length: 3164 seconds
#
# Revision: 0
# Processed by: cddbd v1.5.2PL0 Copyright (c) Steve Scherf et al.
# Submitted via: CDex 1.70beta2
#
DISCID=660c5a09
DTITLE=Mitch Seidman - HOW 'BOUT IT?
DYEAR=2001
DGENRE=Jazz
TTITLE0=LEE
TTITLE1=HOW 'BOUT IT?
TTITLE2=ECHO
TTITLE3=ANOUMAN
TTITLE4=HUNGARIAN JAZZ RHAPSODY
TTITLE5=MEETING
TTITLE6=YOUR HOST
TTITLE7=STRUWWELPETER
TTITLE8=AND SHE REMEMBERS ME
EXTD=YEAR: 2001
EXTT0=
EXTT1=
EXTT2=
EXTT3=
EXTT4=
EXTT5=
EXTT6=
EXTT7=
EXTT8=
PLAYORDER=
